<svg version="1.1" id="Layer_1" xmlns="http://www.w3.org/2000/svg" xmlns:xlink="http://www.w3.org/1999/xlink" x="0px" y="0px" viewBox="0 0 512 512" style="enable-background:new 0 0 512 512;" xml:space="preserve">
<style type="text/css">
	.st0{fill:#94CD00;stroke:#231F20;stroke-width:15;stroke-miterlimit:10;}
	.st1{fill:#1D1D1B;}
	.st2{fill:#FFFFFF;stroke:#1D1D1B;stroke-miterlimit:10;}
	.st3{fill:#231F20;}
	.st4{fill:none;stroke:#1D1D1B;stroke-width:0.6;stroke-miterlimit:10;}
	.st5{fill:none;stroke:#1D1D1B;stroke-miterlimit:10;}
</style>
<path class="st0" d="M117.92,460h276.16c36.41,0,65.92-29.51,65.92-65.92V117.92C460,81.51,430.49,52,394.08,52H117.92
	C81.51,52,52,81.51,52,117.92v276.16C52,430.49,81.51,460,117.92,460z" id="id_101" style="fill: rgb(235, 94, 40);"></path>
<path class="st1" d="M257.32,326.27v0.04c0,0.37,0,0.74-0.01,1.11v-1.15H257.32z" id="id_102"></path>
<g>
<path class="st3" d="M323.4,290.63c2.46,7.55,3.68,15.66,3.43,24.08c-1.11,37.39-31.66,67.78-69.05,68.69
		c-39.95,0.98-72.64-31.12-72.64-70.85h28.35c0,23.49,19.03,42.52,42.52,42.52c23.48,0,42.52-19.03,42.52-42.52
		c0-8.02-2.22-15.52-6.08-21.92c-6.81-11.3-18.74-19.18-32.57-20.42c-1.27-0.12-2.57-0.18-3.87-0.18c-0.43,0-0.87,0.01-1.3,0.02
		c-2.2,0.07-4.41,0.07-6.59-0.17c-12.99-1.44-24.92-6.39-34.82-13.88c-11.52-8.71-20.29-20.86-24.78-34.91
		c-2.2-6.82-3.38-14.1-3.38-21.65v-0.28c0.15-39.01,31.82-70.58,70.87-70.58c39.04,0,70.71,31.57,70.86,70.58h-28.34
		c-0.15-23.35-19.13-42.24-42.52-42.24c-23.4,0-42.37,18.89-42.52,42.24v0.28c0,7.91,2.16,15.31,5.91,21.65
		c6.8,11.47,18.82,19.46,32.8,20.7c1.26,0.11,2.53,0.17,3.81,0.17c0.43,0,0.85-0.01,1.28-0.02c2.16-0.07,4.33-0.07,6.48,0.17
		c13.03,1.42,25.02,6.37,34.94,13.89C310.15,264.65,318.88,276.69,323.4,290.63z" id="id_103"></path>
</g>
</svg>